<?xml version="1.0" encoding="UTF-8"?>
<svg id="Layer_1" xmlns="http://www.w3.org/2000/svg" version="1.1" viewBox="0 0 32 32">
  <!-- Generator: Adobe Illustrator 29.5.1, SVG Export Plug-In . SVG Version: 2.1.0 Build 141)  -->
  <defs>
    <style>
      .st0 {
        fill: #fff;
      }
    </style>
  </defs>
  <path class="st0" d="M23.29,7.15c-.89,0-1.61.72-1.61,1.61s.72,1.61,1.61,1.61,1.61-.72,1.61-1.61-.72-1.61-1.61-1.61Z"/>
  <path class="st0" d="M16.11,9.22c-3.74,0-6.78,3.04-6.78,6.78s3.04,6.78,6.78,6.78,6.78-3.04,6.78-6.78-3.04-6.78-6.78-6.78ZM16.11,20.34c-2.39,0-4.34-1.95-4.34-4.34s1.95-4.34,4.34-4.34,4.34,1.95,4.34,4.34-1.95,4.34-4.34,4.34Z"/>
  <path class="st0" d="M21.49,29.76h-10.99c-4.56,0-8.27-3.71-8.27-8.27v-10.99C2.24,5.95,5.95,2.24,10.51,2.24h10.99c4.56,0,8.27,3.71,8.27,8.27v10.99c0,4.56-3.71,8.27-8.27,8.27ZM10.51,4.83c-3.13,0-5.68,2.55-5.68,5.68v10.99c0,3.13,2.55,5.68,5.68,5.68h10.99c3.13,0,5.68-2.55,5.68-5.68v-10.99c0-3.13-2.55-5.68-5.68-5.68h-10.99Z"/>
</svg>