<?xml version="1.0" encoding="UTF-8"?>
<svg id="Layer_1" xmlns="http://www.w3.org/2000/svg" version="1.1" viewBox="0 0 32 32">
  <!-- Generator: Adobe Illustrator 29.5.1, SVG Export Plug-In . SVG Version: 2.1.0 Build 141)  -->
  <defs>
    <style>
      .st0 {
        fill: #fff;
      }
    </style>
  </defs>
  <path class="st0" d="M16,17.92c-1.89,0-3.44-1.54-3.44-3.44s1.55-3.43,3.44-3.43,3.44,1.54,3.44,3.44-1.55,3.43-3.44,3.43ZM16,12.39c-1.16,0-2.11.94-2.11,2.11s.94,2.11,2.11,2.11,2.11-.94,2.11-2.11-.95-2.11-2.11-2.11Z"/>
  <path class="st0" d="M16,25.56c-1.32,0-2.64-.5-3.67-1.48-2.62-2.53-5.52-6.55-4.43-11.34.99-4.35,4.78-6.29,8.1-6.29h0c3.31,0,7.11,1.95,8.1,6.3,1.08,4.79-1.81,8.81-4.44,11.33-1.03.99-2.35,1.48-3.67,1.48ZM16,7.77c-2.59,0-5.91,1.38-6.79,5.25-.96,4.19,1.67,7.8,4.05,10.08,1.54,1.48,3.95,1.48,5.48,0,2.37-2.28,5-5.89,4.06-10.08-.89-3.88-4.22-5.25-6.81-5.25Z"/>
</svg>