<?xml version="1.0" encoding="UTF-8"?>
<svg id="Layer_1" xmlns="http://www.w3.org/2000/svg" version="1.1" viewBox="0 0 270 100">
  <!-- Generator: Adobe Illustrator 29.5.1, SVG Export Plug-In . SVG Version: 2.1.0 Build 141)  -->
  <defs>
    <style>
      .st0 {
        fill: #094834;
      }

      .st1 {
        fill: #222;
      }
    </style>
  </defs>
  <g>
    <path class="st0" d="M35.03,42.36h0s.02,0,.02,0h-.02ZM35.03,42.36h0s.02,0,.02,0h-.02Z"/>
    <polygon class="st0" points="15 78.1 15 21.69 40.25 35.89 32.96 40.05 22.14 33.99 22.14 70.84 44.28 70.84 44.28 48.97 51.33 44.95 51.33 70.84 64.23 70.84 64.23 33.99 59.42 36.75 50.5 41.89 50.5 41.89 48.23 43.19 47.27 43.74 47.18 43.79 47.02 43.89 43.19 46.09 42.76 46.33 42.09 46.72 42.09 68.05 35.03 64.03 35.03 42.38 35.05 42.37 35.03 42.36 35.87 41.88 41.62 38.62 43.19 37.73 43.83 37.36 71.37 21.69 71.37 78.1 15 78.1"/>
    <polygon class="st0" points="35.05 42.37 35.03 42.38 35.03 42.36 35.05 42.37"/>
  </g>
  <g>
    <g>
      <path class="st1" d="M85.56,60.66v-25h6.39l6.32,9.61,6.36-9.61h6.36v25h-6.39v-15.25l-4.46,6.71h-3.54l-4.61-6.71v15.25h-6.43Z"/>
      <path class="st1" d="M125.49,61.16c-3.78,0-6.93-1.25-9.43-3.79-2.5-2.54-3.75-5.61-3.75-9.21s1.25-6.68,3.75-9.21c2.5-2.54,5.64-3.78,9.43-3.78s6.93,1.25,9.43,3.78c2.5,2.54,3.75,5.61,3.75,9.21s-1.25,6.68-3.75,9.21c-2.5,2.54-5.64,3.79-9.43,3.79ZM125.49,55.23c1.89,0,3.43-.68,4.68-2,1.25-1.32,1.89-3.04,1.89-5.07s-.64-3.75-1.89-5.07c-1.25-1.32-2.79-2-4.68-2s-3.46.68-4.71,2c-1.25,1.32-1.86,3.04-1.86,5.07s.61,3.75,1.86,5.07c1.25,1.32,2.82,2,4.71,2Z"/>
      <path class="st1" d="M139.98,60.66v-25h9.96c4.07,0,7.39,1.18,9.96,3.5,2.57,2.32,3.86,5.32,3.86,9s-1.29,6.71-3.86,9.03c-2.57,2.32-5.89,3.46-9.96,3.46h-9.96ZM146.41,55.01h3.07c4.86,0,7.64-2.46,7.64-6.86s-2.79-6.86-7.64-6.86h-3.07v13.71Z"/>
      <path class="st1" d="M164.76,35.66h6.43v14.86c0,3.18,1.93,4.71,4.54,4.71s4.53-1.54,4.53-4.71v-14.86h6.43v14.53c0,3.46-1.04,6.18-3.11,8.11-2.07,1.89-4.68,2.86-7.86,2.86s-5.79-.96-7.86-2.86c-2.07-1.93-3.11-4.64-3.11-8.11v-14.53Z"/>
      <path class="st1" d="M188.47,60.66v-25h6.43v19.36h12v5.64h-18.43Z"/>
      <path class="st1" d="M207.22,35.66h6.43v14.86c0,3.18,1.93,4.71,4.54,4.71s4.54-1.54,4.54-4.71v-14.86h6.43v14.53c0,3.46-1.04,6.18-3.11,8.11-2.07,1.89-4.68,2.86-7.86,2.86s-5.78-.96-7.86-2.86c-2.07-1.93-3.11-4.64-3.11-8.11v-14.53Z"/>
      <path class="st1" d="M228.36,60.66l9.57-13.43-8.14-11.57h7.5l4.43,6.43,4.46-6.43h7.39l-8.14,11.53,9.57,13.46h-7.53l-5.86-8.32-5.82,8.32h-7.43Z"/>
    </g>
    <g>
      <path class="st1" d="M85.56,78.12v-11.1h1.17v4.93h6.6v-4.93h1.17v11.1h-1.17v-5.11h-6.6v5.11h-1.17Z"/>
      <path class="st1" d="M102.75,66.83c1.6,0,2.92.56,3.98,1.65,1.06,1.09,1.6,2.46,1.6,4.09s-.54,3.01-1.6,4.11c-1.06,1.09-2.38,1.63-3.98,1.63s-2.93-.54-4-1.63c-1.06-1.09-1.59-2.47-1.59-4.11s.52-3,1.59-4.09c1.06-1.09,2.39-1.65,4-1.65ZM102.75,77.22c1.24,0,2.28-.44,3.12-1.33.84-.89,1.27-2,1.27-3.31s-.43-2.43-1.27-3.31c-.84-.89-1.89-1.33-3.12-1.33s-2.28.44-3.12,1.33-1.27,2-1.27,3.31.43,2.43,1.27,3.31c.84.89,1.89,1.33,3.12,1.33Z"/>
      <path class="st1" d="M111.03,78.12v-11.1h1.16l4.01,5.38,4.01-5.38h1.14v11.1h-1.16v-9.32l-3.63,4.85h-.71l-3.66-4.85v9.32h-1.16Z"/>
      <path class="st1" d="M124.48,78.12v-11.1h7.61v1.06h-6.44v3.87h5.28v1.06h-5.28v4.04h6.68v1.06h-7.85Z"/>
      <path class="st1" d="M133.82,77.14v-1.32c.43.36,1,.7,1.73.98.75.27,1.51.41,2.3.41,1.73,0,3-.81,3-2.09.08-.7-.44-1.22-.92-1.51-.13-.1-.35-.21-.67-.32l-.7-.24c-.16-.05-.44-.14-.84-.25-.49-.14-.89-.25-1.17-.35s-.62-.22-.98-.4-.63-.36-.82-.56c-.38-.4-.7-1.03-.7-1.81,0-.84.33-1.52,1.01-2.06.68-.54,1.62-.81,2.82-.81,1.32,0,2.47.3,3.46.92v1.21c-1.09-.68-2.24-1.03-3.43-1.03-1.78,0-2.68.79-2.68,1.81-.08.56.36.98.71,1.25.1.08.27.16.52.25l.54.21.68.19.67.19c.46.14.82.25,1.09.35s.6.24.97.43.65.4.86.6c.43.4.78,1.09.78,1.9,0,1-.4,1.78-1.21,2.35-.79.57-1.76.86-2.92.86-1.65,0-3.2-.49-4.11-1.17Z"/>
    </g>
  </g>
</svg>