<?xml version="1.0" encoding="UTF-8"?>
<svg id="Layer_1" xmlns="http://www.w3.org/2000/svg" version="1.1" viewBox="0 0 32 32">
  <!-- Generator: Adobe Illustrator 29.5.1, SVG Export Plug-In . SVG Version: 2.1.0 Build 141)  -->
  <defs>
    <style>
      .st0 {
        fill: #231f1f;
      }
    </style>
  </defs>
  <path class="st0" d="M17.94,9.45l-2.47,2.94-1.47-1.18c-.18-.14-.43-.11-.58.06-.14.18-.11.43.06.58l1.78,1.44c.08.06.17.09.26.09.12,0,.23-.05.31-.15l2.73-3.25c.15-.17.12-.43-.05-.58-.17-.15-.43-.12-.58.05Z"/>
  <path class="st0" d="M14.19,21.93c-.17,0-.31.1-.37.24l-3.47,7.28-1.01-3.39c-.03-.11-.11-.2-.21-.25-.1-.05-.22-.06-.32-.02l-3.77,1.34,3.54-7.42c.1-.2.01-.45-.19-.55-.2-.1-.45-.01-.55.19l-3.97,8.32c-.07.15-.05.33.07.45.11.12.28.17.44.11l4.3-1.52,1.19,3.99c.05.16.19.28.36.29.01,0,.02,0,.03,0,.16,0,.3-.09.37-.23l3.94-8.25c.03-.06.04-.12.04-.18h0c0-.23-.18-.41-.41-.41Z"/>
  <path class="st0" d="M28.14,27.68l-3.97-8.32c-.1-.2-.34-.29-.55-.19-.2.1-.29.34-.19.55l3.54,7.42-3.78-1.34c-.11-.04-.22-.03-.32.02-.1.05-.17.14-.21.25l-1.01,3.39-3.48-7.29s-.04-.07-.07-.1h0c-.15-.17-.41-.18-.58-.02-.14.13-.17.33-.09.49l.85,1.78,3.08,6.46c.07.14.21.23.37.23.01,0,.02,0,.03,0,.17-.01.31-.13.36-.29l1.19-3.99,4.3,1.52c.16.06.33.01.44-.11.11-.12.14-.3.07-.45Z"/>
  <path class="st0" d="M21.86,11.34c0-3.16-2.63-5.74-5.86-5.74s-5.86,2.57-5.86,5.74,2.63,5.74,5.86,5.74,5.86-2.57,5.86-5.74ZM16,16.26c-2.78,0-5.04-2.21-5.04-4.92s2.26-4.92,5.04-4.92,5.04,2.21,5.04,4.92-2.26,4.92-5.04,4.92Z"/>
  <path class="st0" d="M18.04,20.74c.46-.53,1.16-.76,1.84-.6.76.18,1.56.02,2.2-.44.63-.46,1.03-1.17,1.1-1.95.06-.7.5-1.3,1.14-1.57.72-.3,1.27-.91,1.52-1.65.24-.74.15-1.56-.26-2.22-.36-.6-.36-1.34,0-1.94.4-.67.5-1.48.26-2.22-.24-.74-.79-1.35-1.52-1.65-.64-.27-1.08-.87-1.14-1.57-.07-.78-.47-1.49-1.1-1.95-.63-.46-1.43-.62-2.2-.44-.68.16-1.39-.07-1.84-.6h0c-.51-.59-1.25-.93-2.04-.93s-1.53.34-2.04.93c-.46.53-1.16.76-1.84.6-.76-.18-1.56-.02-2.2.44-.63.46-1.03,1.17-1.1,1.95-.06.7-.5,1.3-1.14,1.57-.72.3-1.27.91-1.52,1.65-.24.74-.15,1.56.26,2.22.36.6.36,1.34,0,1.94-.4.67-.5,1.48-.26,2.22.24.74.79,1.35,1.52,1.65.64.27,1.08.87,1.14,1.57.07.78.47,1.49,1.1,1.95.63.46,1.43.62,2.2.44.68-.16,1.39.07,1.84.6.51.59,1.25.93,2.04.93s1.52-.34,2.04-.93ZM17.42,20.21c-.36.41-.87.65-1.42.65s-1.06-.24-1.42-.65c-.52-.6-1.26-.93-2.03-.93-.2,0-.41.02-.62.07-.53.12-1.09.01-1.53-.31-.44-.32-.72-.82-.77-1.36-.08-1-.71-1.86-1.64-2.25-.5-.21-.89-.63-1.05-1.15-.17-.52-.1-1.08.18-1.55.52-.86.52-1.93,0-2.79-.28-.47-.35-1.03-.18-1.55.17-.52.55-.94,1.05-1.15.93-.39,1.55-1.25,1.64-2.25.05-.54.33-1.04.77-1.36.44-.32,1-.43,1.53-.31.98.23,1.99-.1,2.65-.86.36-.41.87-.65,1.42-.65s1.06.24,1.42.65c.66.76,1.67,1.09,2.65.86.53-.12,1.09-.01,1.53.31.44.32.72.82.77,1.36.08,1,.71,1.86,1.64,2.25.5.21.89.63,1.05,1.15.17.52.1,1.08-.18,1.55-.52.86-.52,1.93,0,2.79.28.47.35,1.03.18,1.55-.17.52-.55.94-1.05,1.15-.93.39-1.55,1.25-1.64,2.25-.05.54-.33,1.04-.77,1.36-.44.32-1,.43-1.53.31-.98-.23-1.99.1-2.65.86Z"/>
</svg>