<?xml version="1.0" encoding="UTF-8"?>
<svg id="Layer_1" xmlns="http://www.w3.org/2000/svg" version="1.1" viewBox="0 0 32 32">
  <!-- Generator: Adobe Illustrator 29.5.1, SVG Export Plug-In . SVG Version: 2.1.0 Build 141)  -->
  <defs>
    <style>
      .st0 {
        fill: #fff;
      }
    </style>
  </defs>
  <path class="st0" d="M8.85,10.5c0-.42.16-.83.44-1.14.32-.35.77-.55,1.24-.55h2.26c.86,0,1.57.64,1.67,1.5.06.5.16,1,.31,1.48.18.6.02,1.25-.41,1.69l-.91.92c.96,1.76,2.42,3.23,4.17,4.19l.91-.92c.44-.44,1.08-.6,1.68-.42.48.15.97.25,1.47.31.85.1,1.49.82,1.49,1.68v2.27c0,.47-.2.93-.55,1.25-.35.32-.82.48-1.29.44-1.62-.15-3.18-.58-4.65-1.28-1.42-.68-2.71-1.6-3.83-2.72-1.12-1.13-2.03-2.42-2.71-3.85-.7-1.47-1.13-3.05-1.28-4.67,0-.05,0-.1,0-.16h0ZM13.72,12.28c0-.06,0-.11-.03-.17-.17-.55-.28-1.11-.35-1.68-.03-.28-.27-.5-.56-.5h-2.26c-.16,0-.31.07-.41.18-.11.12-.16.28-.15.44.56,6.11,5.37,10.96,11.45,11.52.16.02.32-.04.44-.15.12-.11.18-.26.18-.42v-2.27c0-.29-.21-.53-.49-.56-.57-.06-1.13-.18-1.67-.35-.2-.06-.42,0-.57.14l-1.49,1.5-.36-.18c-2.24-1.12-4.09-2.98-5.21-5.24l-.18-.36,1.49-1.5c.11-.11.16-.25.16-.4h0ZM13.72,12.28"/>
</svg>