<?xml version="1.0" encoding="UTF-8"?>
<svg id="Layer_1" xmlns="http://www.w3.org/2000/svg" version="1.1" viewBox="0 0 32 32">
  <!-- Generator: Adobe Illustrator 29.5.1, SVG Export Plug-In . SVG Version: 2.1.0 Build 141)  -->
  <defs>
    <style>
      .st0 {
        fill-rule: evenodd;
      }
    </style>
  </defs>
  <path d="M17.06,31h-2.12c-.12,0-.23-.09-.24-.21l-.59-3.9c-.65-.11-1.3-.28-1.92-.51l-2.46,3.09c-.08.1-.21.12-.32.06l-1.83-1.06c-.11-.06-.15-.19-.11-.3l1.44-3.67c-.51-.42-.98-.89-1.41-1.41l-3.67,1.44c-.11.05-.24,0-.3-.11l-1.06-1.84c-.06-.11-.04-.24.06-.32l3.08-2.46c-.23-.62-.4-1.27-.51-1.92l-3.9-.59c-.12-.02-.21-.12-.21-.24v-2.12c0-.12.09-.23.21-.24l3.9-.59c.11-.65.29-1.3.51-1.92l-3.08-2.45c-.1-.08-.12-.21-.06-.32l1.06-1.84c.06-.11.19-.15.3-.11l3.67,1.44c.43-.51.9-.98,1.41-1.41l-1.44-3.67c-.04-.11,0-.24.11-.3l1.83-1.06c.11-.06.24-.03.32.06l2.46,3.08c.62-.23,1.27-.4,1.92-.51l.59-3.9c.02-.12.12-.21.24-.21h2.12c.12,0,.23.09.24.21l.59,3.9c.65.11,1.3.29,1.92.51l2.46-3.09c.08-.1.21-.12.32-.06l1.83,1.06c.11.06.15.19.11.3l-1.44,3.67c.51.42.98.9,1.41,1.41l3.67-1.44c.11-.05.24,0,.3.11l1.06,1.84c.06.11.04.24-.06.32l-3.09,2.46c.23.63.4,1.27.51,1.92l3.9.59c.12.02.21.12.21.24v2.12c0,.12-.09.23-.21.24l-3.9.59c-.11.65-.28,1.29-.51,1.92l3.09,2.46c.1.08.12.21.06.32l-1.06,1.84c-.06.11-.19.15-.3.11l-3.67-1.44c-.43.51-.9.98-1.41,1.41l1.44,3.67c.04.11,0,.24-.11.3l-1.83,1.06c-.11.06-.24.03-.32-.06l-2.46-3.08c-.63.23-1.27.4-1.92.51l-.59,3.9c-.02.12-.12.21-.24.21ZM15.15,30.51h1.69l.58-3.87c.02-.11.1-.19.21-.21.74-.11,1.47-.31,2.17-.58.1-.04.21,0,.28.08l2.44,3.06,1.47-.84-1.43-3.64c-.04-.1,0-.21.07-.28.58-.47,1.12-1,1.59-1.59.07-.08.18-.11.28-.07l3.64,1.43.85-1.47-3.06-2.44c-.08-.07-.12-.18-.08-.28.27-.7.47-1.43.58-2.17.02-.11.1-.19.21-.21l3.87-.58v-1.69l-3.87-.58c-.11-.02-.19-.1-.21-.21-.11-.73-.31-1.46-.58-2.17-.04-.1,0-.21.08-.28l3.06-2.44-.85-1.47-3.64,1.43c-.1.04-.21,0-.28-.07-.47-.58-1.01-1.12-1.59-1.59-.08-.07-.11-.18-.07-.28l1.43-3.64-1.47-.85-2.44,3.06c-.07.08-.18.11-.28.08-.7-.27-1.43-.47-2.17-.58-.11-.02-.19-.1-.21-.21l-.58-3.87h-1.69l-.58,3.87c-.02.11-.1.19-.21.21-.74.11-1.47.31-2.17.58-.1.04-.21,0-.28-.08l-2.44-3.06-1.47.85,1.43,3.64c.04.1,0,.21-.08.28-.58.46-1.11,1-1.59,1.59-.07.08-.18.11-.28.07l-3.64-1.43-.85,1.47,3.06,2.43c.08.07.12.18.08.28-.27.7-.47,1.43-.58,2.17-.02.11-.1.19-.21.21l-3.87.58v1.69l3.87.58c.11.02.19.1.21.21.12.74.31,1.47.58,2.17.04.1,0,.21-.08.28l-3.06,2.44.85,1.47,3.64-1.43c.1-.04.21,0,.28.07.47.59,1.01,1.12,1.59,1.59.08.07.11.18.08.28l-1.43,3.64,1.47.85,2.44-3.06c.07-.08.18-.12.28-.08.7.27,1.43.47,2.17.58.11.02.19.1.21.21l.58,3.87Z"/>
  <path d="M16,23.35c-4.05,0-7.34-3.3-7.34-7.35s3.29-7.35,7.34-7.35,7.35,3.3,7.35,7.35-3.3,7.35-7.35,7.35ZM16,9.15c-3.78,0-6.85,3.07-6.85,6.85s3.07,6.85,6.85,6.85,6.85-3.07,6.85-6.85-3.07-6.85-6.85-6.85Z"/>
  <path class="st0" d="M16,10.18c.25,0,.45.2.45.45s-.2.45-.45.45-.45-.2-.45-.45.2-.45.45-.45"/>
  <path class="st0" d="M18.91,10.96c.22.13.29.4.17.62-.13.22-.4.29-.62.17-.22-.13-.29-.41-.17-.62.13-.22.4-.29.62-.17"/>
  <path class="st0" d="M21.04,13.09c.13.22.05.49-.17.62-.22.13-.5.05-.62-.17-.12-.22-.05-.5.17-.62.22-.12.49-.05.62.17"/>
  <path class="st0" d="M21.82,16c0,.25-.2.46-.45.46s-.45-.2-.45-.46.2-.45.45-.45.45.2.45.45"/>
  <path class="st0" d="M21.04,18.91c-.13.22-.4.29-.62.17-.22-.13-.29-.41-.17-.62.13-.22.4-.29.62-.17.22.13.29.4.17.62"/>
  <path class="st0" d="M18.91,21.04c-.22.12-.5.05-.62-.17-.13-.22-.05-.5.17-.62.22-.12.5-.05.62.17.13.21.05.49-.17.62"/>
  <path class="st0" d="M16,21.82c-.25,0-.45-.2-.45-.45s.2-.45.45-.45.45.2.45.45-.2.45-.45.45"/>
  <path class="st0" d="M13.09,21.04c-.22-.13-.29-.41-.17-.62.12-.22.4-.29.62-.17.22.13.29.41.17.62-.13.22-.4.29-.62.17"/>
  <path class="st0" d="M10.96,18.91c-.13-.22-.05-.49.17-.62.22-.13.49-.05.62.17.12.22.05.5-.17.62-.22.12-.5.05-.62-.17"/>
  <path class="st0" d="M10.18,16c0-.25.2-.45.45-.45s.45.2.45.45-.2.46-.45.46-.45-.2-.45-.46"/>
  <path class="st0" d="M10.96,13.09c.13-.22.4-.29.62-.17.22.13.29.41.17.62-.13.21-.4.29-.62.17-.22-.13-.29-.4-.17-.62"/>
  <path class="st0" d="M13.09,10.96c.22-.13.49-.05.62.17.12.22.05.5-.17.62-.22.12-.5.05-.62-.17-.13-.22-.05-.49.17-.62"/>
  <path d="M16,16.94c-.52,0-.94-.42-.94-.94s.42-.94.94-.94.94.42.94.94-.42.94-.94.94ZM16,15.56c-.25,0-.44.2-.44.45s.2.45.44.45.45-.2.45-.45-.2-.45-.45-.45Z"/>
  <path d="M19.66,16.55s-.01,0-.02,0l-2.97-.24c-.14-.01-.24-.13-.23-.27s.13-.24.27-.23l2.97.24c.14.01.24.13.23.27-.01.13-.12.23-.25.23ZM15.54,15.73c-.07,0-.14-.03-.19-.08l-1.46-1.67c-.09-.1-.08-.26.02-.35.1-.09.26-.08.35.02l1.46,1.67c.09.1.08.26-.02.35-.05.04-.1.06-.16.06Z"/>
</svg>