<?xml version="1.0" encoding="UTF-8"?>
<svg id="Layer_1" xmlns="http://www.w3.org/2000/svg" version="1.1" viewBox="0 0 32 32">
  <!-- Generator: Adobe Illustrator 29.5.1, SVG Export Plug-In . SVG Version: 2.1.0 Build 141)  -->
  <path d="M16.93,31h-1.86c-.12,0-.23-.09-.24-.21l-.51-3.4c-.56-.1-1.12-.25-1.65-.44l-2.15,2.69c-.08.09-.21.12-.32.06l-1.61-.93c-.11-.06-.15-.19-.11-.3l1.26-3.2c-.43-.36-.84-.77-1.21-1.21l-3.21,1.26c-.11.04-.24,0-.3-.11l-.93-1.61c-.06-.11-.04-.24.06-.32l2.69-2.14c-.2-.54-.34-1.09-.44-1.65l-3.41-.51c-.12-.02-.21-.12-.21-.24v-.93c0-.14.11-.25.25-.25s.25.11.25.25v.72l3.37.5c.11.02.19.1.21.21.1.64.27,1.28.51,1.9.04.1,0,.21-.08.28l-2.67,2.12.72,1.24,3.18-1.25c.1-.04.21,0,.28.07.42.51.89.98,1.39,1.39.08.07.11.18.07.28l-1.25,3.17,1.24.72,2.12-2.67c.07-.08.18-.11.28-.08.61.23,1.25.4,1.9.51.11.02.19.1.21.21l.51,3.37h1.43l.51-3.37c.02-.11.1-.19.21-.21.65-.1,1.29-.27,1.9-.51.1-.04.21,0,.28.08l2.12,2.67,1.24-.72-1.25-3.17c-.04-.1,0-.21.07-.28.51-.41.98-.88,1.39-1.39.07-.08.18-.11.28-.07l3.18,1.25.72-1.24-2.67-2.13c-.08-.07-.12-.18-.08-.28.24-.61.41-1.25.51-1.9.02-.11.1-.19.21-.21l3.37-.51v-.72c0-.14.11-.25.25-.25s.25.11.25.25v.93c0,.12-.09.23-.21.24l-3.41.51c-.1.56-.24,1.11-.44,1.65l2.69,2.15c.1.08.12.21.06.32l-.93,1.61c-.06.11-.19.15-.3.11l-3.21-1.26c-.37.44-.77.85-1.21,1.21l1.26,3.2c.04.11,0,.24-.11.3l-1.61.93c-.11.06-.24.04-.32-.06l-2.15-2.69c-.53.19-1.09.34-1.65.44l-.51,3.4c-.02.12-.12.21-.24.21ZM16,22.8c-2.76,0-5-2.25-5-5,0-.14.11-.25.25-.25s.25.11.25.25c0,2.49,2.02,4.51,4.51,4.51s4.51-2.02,4.51-4.51c0-.14.11-.25.25-.25s.25.11.25.25c0,2.76-2.24,5-5,5Z"/>
  <path d="M30.63,16.12H7.55c-.14,0-.25-.11-.25-.25s.11-.25.25-.25h23.08c.14,0,.25.11.25.25s-.11.25-.25.25ZM5.11,16.12H1.37c-.14,0-.25-.11-.25-.25s.11-.25.25-.25h3.74c.14,0,.25.11.25.25s-.11.25-.25.25Z"/>
  <path d="M6.33,17.34c-.81,0-1.47-.66-1.47-1.47s.66-1.47,1.47-1.47,1.47.66,1.47,1.47-.66,1.47-1.47,1.47ZM6.33,14.9c-.54,0-.97.44-.97.97s.44.97.97.97.97-.44.97-.97-.44-.97-.97-.97Z"/>
  <path d="M30.63,11.65H13c-.14,0-.25-.11-.25-.25s.11-.25.25-.25h17.63c.14,0,.25.11.25.25s-.11.25-.25.25ZM10.56,11.65H1.37c-.14,0-.25-.11-.25-.25s.11-.25.25-.25h9.19c.14,0,.25.11.25.25s-.11.25-.25.25Z"/>
  <path d="M11.78,12.87c-.81,0-1.47-.66-1.47-1.47s.66-1.46,1.47-1.46,1.47.66,1.47,1.46-.66,1.47-1.47,1.47ZM11.78,10.43c-.54,0-.97.43-.97.97s.44.98.97.98.97-.44.97-.98-.44-.97-.97-.97Z"/>
  <path d="M30.63,7.18h-8.58c-.14,0-.25-.11-.25-.25s.11-.25.25-.25h8.58c.14,0,.25.11.25.25s-.11.25-.25.25ZM19.61,7.18H1.37c-.14,0-.25-.11-.25-.25s.11-.25.25-.25h18.23c.14,0,.25.11.25.25s-.11.25-.25.25Z"/>
  <path d="M20.83,8.4c-.81,0-1.47-.66-1.47-1.47s.66-1.47,1.47-1.47,1.47.66,1.47,1.47-.66,1.47-1.47,1.47ZM20.83,5.96c-.54,0-.97.44-.97.97s.44.97.97.97.97-.44.97-.97-.44-.97-.97-.97Z"/>
  <path d="M30.63,2.71H14.29c-.14,0-.25-.11-.25-.25s.11-.25.25-.25h16.34c.14,0,.25.11.25.25s-.11.25-.25.25ZM11.85,2.71H1.37c-.14,0-.25-.11-.25-.25s.11-.25.25-.25h10.48c.14,0,.25.11.25.25s-.11.25-.25.25Z"/>
  <path d="M13.07,3.93c-.81,0-1.47-.66-1.47-1.47s.66-1.46,1.47-1.46,1.47.66,1.47,1.46-.66,1.47-1.47,1.47ZM13.07,1.49c-.54,0-.97.43-.97.97s.44.98.97.98.97-.44.97-.98-.44-.97-.97-.97Z"/>
</svg>